<?xml version="1.0" encoding="UTF-8"?>
<svg id="Layer_2" data-name="Layer 2" xmlns="http://www.w3.org/2000/svg" viewBox="0 0 760.47 127.79" width="760.47" height="127.79">
  <defs>
    <style>
      .cls-1 {
        fill: #fff;
        stroke: #fff;
        stroke-miterlimit: 10;
        stroke-width: 5px;
      }
    </style>
  </defs>
  <g id="Camada_1" data-name="Camada 1">
    <g>
      <g>
        <path class="cls-1" d="M163.52,3.65v121.3h-3.95V3.65h3.95Z"/>
        <path class="cls-1" d="M189.77,3.99v116.87h49.48v4.08h-53.75V3.99h4.27Z"/>
        <path class="cls-1" d="M370.49,124.95h5.59L262.08,3.99h-4.19v121.3h3.84V10.8l108.76,114.15Z"/>
        <path class="cls-1" d="M11.41,3.25h-5.61l114.57,121.57h4.21V2.91h-3.86v115.07L11.41,3.25Z"/>
      </g>
      <g>
        <path class="cls-1" d="M687.37,2.5v122.18h-4.11V2.5h4.11Z M743.06,62.25v3.77h-46.07v-3.77h46.07Z M757.97,2.5v122.18h-4.11V2.5h4.11Z"/>
        <path class="cls-1" d="M382.88,7.51V3.39h68.88v4.11h-32.73v117.72h-4.11V7.51h-32.04Z"/>
        <path class="cls-1" d="M542.58,3.39v3.77h-71.63v54.28h29.64v4.46h-29.64v55.22h69.57v4.11h-73.68V3.39h75.74Z"/>
        <path class="cls-1" d="M604.44,124.68c-7.2-.69-13.88-2.77-20.05-6.26-6.17-3.48-11.65-7.91-16.45-13.28-2.63-2.85-4.88-6-6.77-9.43-1.88-3.43-3.51-6.97-4.88-10.62-2.51-6.85-3.71-13.79-3.6-20.82.11-7.03,1.26-13.74,3.43-20.13,2.17-6.4,5.28-12.34,9.34-17.82,4.06-5.48,8.83-10.08,14.31-13.79,5.48-3.71,11.57-6.37,18.25-7.97,6.68-1.6,13.79-1.83,21.33-.68,8.91,1.37,16.97,4.86,24.16,10.45,7.2,5.6,12.91,12.34,17.14,20.22.23.34.63,1.14,1.2,2.4.57,1.26.97,2.17,1.2,2.74,0,.23.11.57.34,1.03.23.46.34.8.34,1.03-.57.23-1.2.57-1.89,1.03-.68.46-1.31.57-1.88.34-1.83-4.34-3.91-8.31-6.25-11.91-2.34-3.6-5.23-7.05-8.65-10.37-6.4-5.94-13.79-9.91-22.19-11.91-8.4-2-16.82-1.97-25.27.09-6.85,1.71-13.17,4.86-18.93,9.42-5.77,4.57-10.37,9.94-13.79,16.11-3.54,6.4-5.85,13.02-6.94,19.88-1.09,6.86-1.03,13.54.17,20.05,1.2,6.51,3.4,12.65,6.6,18.42,3.2,5.77,7.25,10.77,12.17,14.99,4.91,4.23,10.56,7.51,16.96,9.85,6.4,2.34,13.37,3.29,20.9,2.83,5.14-.23,10.11-1.37,14.91-3.43,4.8-2.06,9.22-4.77,13.28-8.14,4.05-3.37,7.57-7.22,10.54-11.57,2.97-4.34,5.25-8.91,6.85-13.71l3.77,1.37v.34c-.92,2.74-2.03,5.4-3.34,7.97-1.31,2.57-2.77,5.05-4.37,7.45-2.97,4.23-6.4,7.94-10.28,11.14-3.88,3.2-8.08,5.8-12.59,7.8-4.52,2-9.23,3.43-14.14,4.28-4.91.86-9.88,1.06-14.91.6Z"/>
      </g>
    </g>
  </g>
</svg>